<svg width="100" height="61" viewBox="0 0 100 61" fill="none" xmlns="http://www.w3.org/2000/svg">
<path d="M34.8187 16.7124L43.3761 27.4046L43.3657 27.4149L43.3491 27.4541L37.7873 40.8116H23.7491L32.3977 21.9811L34.8187 16.7124Z" fill="url(#paint0_linear_199_218)"/>
<path d="M61.0572 9.61452L60.9742 9.6971L58.1756 12.5131C57.3085 13.1283 56.4455 13.9521 55.651 15.0525L47.2181 23.5357L45.8634 20.2345L35.0054 16.3015L37.1981 11.5263L42.2102 0.619354H57.1156L61.0572 9.61452Z" fill="url(#paint1_linear_199_218)"/>
<path d="M64.8079 10.8594C64.8079 10.8594 61.4596 10.1864 58.1757 12.5152C57.3085 13.1304 56.4455 13.9542 55.651 15.0546C54.6428 16.4502 53.7404 18.2918 53.0765 20.7155L49.7116 29.6157L47.2201 23.5377L45.8655 20.2365L35.0075 16.3036L21.8239 11.5284H49.7096L51.2489 15.451C51.2489 15.451 54.4913 8.99724 60.9742 9.69711C62.1484 9.82511 63.4242 10.1843 64.8079 10.8594Z" fill="white"/>
<path d="M43.4611 27.5099L43.3491 27.4541L32.3977 21.9811L21.8239 16.6959H34.8062L34.8187 16.7124L43.3761 27.4046L43.4611 27.5099Z" fill="white"/>
<path d="M78.174 11.4334C78.174 11.4334 62.1152 11.2414 60.4804 21.7684C60.4804 21.7684 56.0576 43.3965 38.364 41.0986C38.364 41.0986 47.9794 42.0566 51.9231 30.5716L56.0576 19.9496C56.0576 19.9496 58.3644 12.6762 65.673 11.4334H78.174Z" fill="url(#paint2_linear_199_218)"/>
<path d="M63.8142 15.8164L75.1929 41.2906H61.443L57.045 30.6542L58.269 20.2386C58.269 20.2365 61.5675 15.0339 63.8142 15.8164Z" fill="url(#paint3_linear_199_218)"/>
<path d="M0 60.2693L7.25458 44.9051H10.69L18.0151 60.2693H14.5548L8.20679 46.4246H9.73363L3.4354 60.2693H0ZM3.842 56.9207V54.2843H14.0548V56.9207H3.842Z" fill="white"/>
<path d="M25.2199 58.2502H24.0976L28.4396 48.4664H31.8273L26.1244 60.2673H23.1931L17.6106 48.4664H21.0232L25.2199 58.2502Z" fill="white"/>
<path d="M37.1982 43.2906V45.9972H33.5947V43.2906H37.1982ZM33.8354 48.4664H36.9368V60.2673H33.8354V48.4664Z" fill="white"/>
<path d="M47.0293 60.5542C45.5335 60.5542 44.2183 60.3168 43.0794 59.842C41.9425 59.3671 41.0547 58.6755 40.4199 57.765C39.783 56.8546 39.4656 55.7356 39.4656 54.404C39.4656 53.0744 39.783 51.9472 40.4199 51.0202C41.0567 50.0933 41.9425 49.3934 43.0794 48.9185C44.2162 48.4437 45.5335 48.2063 47.0293 48.2063C48.525 48.2063 49.8319 48.4437 50.9542 48.9185C52.0766 49.3934 52.9541 50.0933 53.591 51.0202C54.2278 51.9472 54.5452 53.0744 54.5452 54.404C54.5452 55.7335 54.2278 56.8546 53.591 57.765C52.9541 58.6755 52.0766 59.3671 50.9542 59.842C49.8319 60.3168 48.525 60.5542 47.0293 60.5542ZM47.0293 58.18C47.857 58.18 48.5997 58.0334 49.2594 57.7403C49.9191 57.4471 50.4398 57.0198 50.8215 56.4582C51.2032 55.8966 51.394 55.2112 51.394 54.404C51.394 53.5968 51.2032 52.9051 50.8215 52.3271C50.4398 51.749 49.9232 51.3093 49.2697 51.0099C48.6163 50.7085 47.8694 50.5578 47.0272 50.5578C46.1995 50.5578 45.4526 50.7085 44.7846 51.0099C44.1166 51.3113 43.5876 51.7469 43.1976 52.3168C42.8076 52.8866 42.6126 53.5844 42.6126 54.4061C42.6126 55.2133 42.8035 55.8987 43.1852 56.4603C43.5669 57.0218 44.0917 57.4492 44.7597 57.7423C45.4298 58.0334 46.1849 58.18 47.0293 58.18Z" fill="white"/>
<path d="M56.8355 48.4664H59.9369V60.2673H56.8355V48.4664ZM64.4946 51.0078C63.6026 51.0078 62.8329 51.1792 62.1795 51.5178C61.5281 51.8584 61.0032 52.2734 60.6049 52.7647C60.2066 53.2561 59.9286 53.7309 59.7689 54.1893L59.744 52.8824C59.7606 52.6925 59.8228 52.4117 59.9348 52.0401C60.0469 51.6685 60.2128 51.2638 60.4369 50.8282C60.6588 50.3926 60.9534 49.9735 61.3206 49.5688C61.6857 49.1642 62.1318 48.838 62.6566 48.5841C63.1815 48.3301 63.7934 48.2042 64.4946 48.2042V51.0078Z" fill="white"/>
<path d="M65.9261 56.3508H68.7889C68.9632 56.8897 69.3262 57.3294 69.8739 57.668C70.4215 58.0087 71.1414 58.1779 72.0334 58.1779C72.6371 58.1779 73.108 58.1222 73.442 58.0128C73.776 57.9013 74.0063 57.7403 74.1329 57.5256C74.2594 57.3109 74.3237 57.0714 74.3237 56.8009C74.3237 56.4685 74.22 56.2105 74.0125 56.0288C73.8051 55.8471 73.4877 55.7005 73.0583 55.589C72.6288 55.4775 72.0791 55.3743 71.4111 55.2794C70.7431 55.1679 70.0979 55.0337 69.4776 54.8747C68.8574 54.7157 68.3076 54.5072 67.8305 54.245C67.3533 53.9849 66.9758 53.6504 66.6978 53.2479C66.4198 52.8432 66.2808 52.3498 66.2808 51.7635C66.2808 51.1936 66.4198 50.6878 66.6978 50.244C66.9758 49.8001 67.3658 49.4285 67.8678 49.127C68.3698 48.8256 68.9569 48.5965 69.6332 48.4375C70.3095 48.2785 71.0377 48.2001 71.8156 48.2001C72.9919 48.2001 73.971 48.3714 74.7511 48.71C75.5311 49.0507 76.114 49.5255 76.504 50.1345C76.894 50.7436 77.089 51.4455 77.089 52.2362H74.3445C74.2179 51.6499 73.9627 51.2267 73.581 50.9665C73.1993 50.7043 72.6102 50.5743 71.8156 50.5743C71.0356 50.5743 70.4464 50.694 70.0502 50.9314C69.6519 51.1689 69.4527 51.493 69.4527 51.9059C69.4527 52.2383 69.5751 52.4964 69.822 52.678C70.0689 52.8597 70.434 53.0063 70.9194 53.1178C71.4049 53.2293 72.0127 53.3469 72.745 53.4749C73.3653 53.6009 73.9586 53.7454 74.5229 53.9023C75.0871 54.0613 75.5933 54.2636 76.0373 54.5072C76.4833 54.7529 76.8359 55.077 77.0994 55.4817C77.3608 55.8863 77.4936 56.3963 77.4936 57.0136C77.4936 57.7733 77.2758 58.4154 76.838 58.9377C76.4003 59.46 75.7759 59.8605 74.9647 60.1372C74.1536 60.4138 73.1827 60.5522 72.0542 60.5522C71.0522 60.5522 70.1892 60.4448 69.4652 60.2322C68.7412 60.0175 68.1417 59.7408 67.6645 59.4002C67.1874 59.0595 66.8181 58.6961 66.5546 58.308C66.2933 57.9199 66.1128 57.5524 66.0173 57.2035C65.9261 56.8587 65.895 56.5738 65.9261 56.3508Z" fill="white"/>
<path d="M86.8517 60.5542C85.356 60.5542 84.0407 60.3168 82.9018 59.842C81.765 59.3671 80.8771 58.6755 80.2402 57.765C79.6034 56.8546 79.2859 55.7356 79.2859 54.404C79.2859 53.0744 79.6034 51.9472 80.2402 51.0202C80.8771 50.0933 81.7629 49.3934 82.9018 48.9185C84.0387 48.4437 85.356 48.2063 86.8517 48.2063C88.3474 48.2063 89.6544 48.4437 90.7767 48.9185C91.899 49.3934 92.7765 50.0933 93.4134 51.0202C94.0503 51.9472 94.3677 53.0744 94.3677 54.404C94.3677 55.7335 94.0503 56.8546 93.4134 57.765C92.7765 58.6755 91.899 59.3671 90.7767 59.842C89.6565 60.3168 88.3474 60.5542 86.8517 60.5542ZM86.8517 58.18C87.6794 58.18 88.4221 58.0334 89.0818 57.7403C89.7415 57.4471 90.2622 57.0198 90.6439 56.4582C91.0256 55.8966 91.2165 55.2112 91.2165 54.404C91.2165 53.5968 91.0256 52.9051 90.6439 52.3271C90.2622 51.749 89.7457 51.3093 89.0922 51.0099C88.4408 50.7085 87.6919 50.5578 86.8496 50.5578C86.0219 50.5578 85.2751 50.7085 84.6071 51.0099C83.9391 51.3113 83.4101 51.7469 83.0201 52.3168C82.6301 52.8866 82.4351 53.5844 82.4351 54.4061C82.4351 55.2133 82.6259 55.8987 83.0076 56.4603C83.3893 57.0218 83.9142 57.4492 84.5822 57.7423C85.2543 58.0334 86.0095 58.18 86.8517 58.18Z" fill="white"/>
<path d="M96.8965 43.718H99.998V60.2693H96.8965V43.718Z" fill="white"/>
<defs>
<linearGradient id="paint0_linear_199_218" x1="32.2323" y1="37.5326" x2="46.4113" y2="5.47575" gradientUnits="userSpaceOnUse">
<stop stop-color="#3C1477"/>
<stop offset="1" stop-color="#0AA4F8"/>
</linearGradient>
<linearGradient id="paint1_linear_199_218" x1="36.262" y1="39.315" x2="50.441" y2="7.25813" gradientUnits="userSpaceOnUse">
<stop stop-color="#3C1477"/>
<stop offset="1" stop-color="#0AA4F8"/>
</linearGradient>
<linearGradient id="paint2_linear_199_218" x1="49.7731" y1="45.291" x2="63.952" y2="13.2341" gradientUnits="userSpaceOnUse">
<stop stop-color="#3C1477"/>
<stop offset="1" stop-color="#0AA4F8"/>
</linearGradient>
<linearGradient id="paint3_linear_199_218" x1="58.5167" y1="49.1583" x2="72.6956" y2="17.1015" gradientUnits="userSpaceOnUse">
<stop stop-color="#3C1477"/>
<stop offset="1" stop-color="#0AA4F8"/>
</linearGradient>
</defs>
</svg>
