<svg width="102" height="22" viewBox="0 0 102 22" fill="none" xmlns="http://www.w3.org/2000/svg">
<path d="M9.63625 19.0431H8.25001L13.6131 6.93961H17.7975L10.7535 21.5383H7.13281L0.237427 6.93961H4.45255L9.63625 19.0431Z" fill="white"/>
<path d="M24.4315 0.536713V3.88502H19.9806V0.536713H24.4315ZM20.2778 6.93962H24.1086V21.5383H20.2778V6.93962Z" fill="white"/>
<path d="M36.5746 21.8934C34.7272 21.8934 33.1026 21.5997 31.6959 21.0122C30.2917 20.4248 29.195 19.5692 28.4109 18.4429C27.6242 17.3166 27.2322 15.9323 27.2322 14.285C27.2322 12.6402 27.6242 11.2457 28.4109 10.0989C29.1975 8.9522 30.2917 8.08638 31.6959 7.49896C33.1 6.91154 34.7272 6.61783 36.5746 6.61783C38.4221 6.61783 40.0364 6.91154 41.4227 7.49896C42.8089 8.08638 43.8928 8.9522 44.6795 10.0989C45.4661 11.2457 45.8582 12.6402 45.8582 14.285C45.8582 15.9298 45.4661 17.3166 44.6795 18.4429C43.8928 19.5692 42.8089 20.4248 41.4227 21.0122C40.0364 21.5997 38.4221 21.8934 36.5746 21.8934ZM36.5746 18.9563C37.597 18.9563 38.5144 18.7749 39.3292 18.4123C40.144 18.0496 40.7872 17.5209 41.2587 16.8262C41.7302 16.1315 41.9659 15.2836 41.9659 14.285C41.9659 13.2863 41.7302 12.4308 41.2587 11.7156C40.7872 11.0005 40.1492 10.4565 39.342 10.0862C38.5349 9.71329 37.6124 9.52685 36.5721 9.52685C35.5497 9.52685 34.6272 9.71329 33.8021 10.0862C32.977 10.4591 32.3236 10.998 31.8419 11.7029C31.3602 12.4078 31.1193 13.271 31.1193 14.2875C31.1193 15.2861 31.3551 16.1341 31.8265 16.8288C32.298 17.5235 32.9463 18.0521 33.7714 18.4148C34.599 18.7749 35.5317 18.9563 36.5746 18.9563Z" fill="white"/>
<path d="M48.687 6.93962H52.5178V21.5384H48.687V6.93962ZM58.1473 10.0836C57.0455 10.0836 56.0949 10.2956 55.2877 10.7145C54.4831 11.1359 53.8348 11.6492 53.3429 12.2571C52.8509 12.8649 52.5075 13.4524 52.3102 14.0193L52.2795 12.4027C52.3 12.1677 52.3768 11.8203 52.5152 11.3606C52.6536 10.9009 52.8586 10.4003 53.1353 9.86141C53.4095 9.32251 53.7733 8.80405 54.2269 8.30347C54.6779 7.80288 55.2288 7.39935 55.8771 7.0852C56.5253 6.77106 57.2813 6.61526 58.1473 6.61526V10.0836Z" fill="white"/>
<path d="M59.9154 16.6934H63.4515C63.6667 17.36 64.1151 17.904 64.7916 18.3229C65.4681 18.7443 66.3572 18.9537 67.4591 18.9537C68.2047 18.9537 68.7864 18.8847 69.1989 18.7494C69.6115 18.6115 69.8959 18.4123 70.0522 18.1466C70.2085 17.881 70.2879 17.5848 70.2879 17.2502C70.2879 16.839 70.1598 16.5197 69.9036 16.295C69.6473 16.0702 69.2553 15.8889 68.7249 15.751C68.1945 15.6131 67.5154 15.4854 66.6903 15.3679C65.8653 15.23 65.0683 15.0639 64.3022 14.8673C63.536 14.6706 62.857 14.4127 62.2677 14.0883C61.6783 13.7665 61.212 13.3528 60.8686 12.8547C60.5252 12.3541 60.3536 11.7437 60.3536 11.0184C60.3536 10.3135 60.5252 9.68775 60.8686 9.13864C61.212 8.58953 61.6937 8.12981 62.3138 7.75692C62.9339 7.38404 63.659 7.10054 64.4944 6.90388C65.3297 6.70722 66.2291 6.61017 67.19 6.61017C68.6429 6.61017 69.8523 6.82215 70.8158 7.24101C71.7792 7.66242 72.4993 8.24984 72.981 9.00328C73.4627 9.75671 73.7036 10.6251 73.7036 11.6033H70.3135C70.1572 10.8779 69.8421 10.3543 69.3706 10.0325C68.8991 9.70818 68.1714 9.54728 67.19 9.54728C66.2265 9.54728 65.4988 9.69541 65.0094 9.98912C64.5174 10.2828 64.2714 10.6838 64.2714 11.1946C64.2714 11.6058 64.4226 11.9251 64.7276 12.1498C65.0325 12.3746 65.4835 12.5559 66.083 12.6938C66.6826 12.8317 67.4334 12.9773 68.338 13.1357C69.1041 13.2915 69.837 13.4702 70.5339 13.6643C71.2309 13.861 71.8561 14.1113 72.4045 14.4127C72.9554 14.7166 73.391 15.1176 73.7164 15.6182C74.0393 16.1187 74.2032 16.7496 74.2032 17.5132C74.2032 18.4531 73.9342 19.2474 73.3935 19.8936C72.8529 20.5397 72.0816 21.0352 71.0797 21.3775C70.0778 21.7197 68.8786 21.8908 67.4847 21.8908C66.247 21.8908 65.1811 21.758 64.2868 21.4949C63.3925 21.2293 62.652 20.8871 62.0627 20.4657C61.4733 20.0443 61.0172 19.5948 60.6918 19.1146C60.3689 18.6344 60.146 18.1798 60.0281 17.7482C59.9154 17.3217 59.877 16.9692 59.9154 16.6934Z" fill="white"/>
<path d="M85.7622 21.8934C83.9147 21.8934 82.2902 21.5997 80.8834 21.0122C79.4792 20.4248 78.3825 19.5692 77.5959 18.4429C76.8092 17.3166 76.4172 15.9323 76.4172 14.285C76.4172 12.6402 76.8092 11.2457 77.5959 10.0989C78.3825 8.9522 79.4767 8.08638 80.8834 7.49896C82.2876 6.91154 83.9147 6.61783 85.7622 6.61783C87.6097 6.61783 89.224 6.91154 90.6102 7.49896C91.9965 8.08638 93.0804 8.9522 93.867 10.0989C94.6537 11.2457 95.0457 12.6402 95.0457 14.285C95.0457 15.9298 94.6537 17.3166 93.867 18.4429C93.0804 19.5692 91.9965 20.4248 90.6102 21.0122C89.2265 21.5997 87.6097 21.8934 85.7622 21.8934ZM85.7622 18.9563C86.7846 18.9563 87.7019 18.7749 88.5168 18.4123C89.3316 18.0496 89.9748 17.5209 90.4462 16.8262C90.9177 16.1315 91.1535 15.2836 91.1535 14.285C91.1535 13.2863 90.9177 12.4308 90.4462 11.7156C89.9748 11.0005 89.3367 10.4565 88.5296 10.0862C87.725 9.71329 86.8 9.52685 85.7596 9.52685C84.7372 9.52685 83.8148 9.71329 82.9897 10.0862C82.1646 10.4591 81.5112 10.998 81.0295 11.7029C80.5477 12.4078 80.3069 13.271 80.3069 14.2875C80.3069 15.2861 80.5426 16.1341 81.0141 16.8288C81.4856 17.5235 82.1339 18.0521 82.9589 18.4148C83.7892 18.7749 84.7219 18.9563 85.7622 18.9563Z" fill="white"/>
<path d="M98.1693 1.0654H102V21.5409H98.1693V1.0654Z" fill="white"/>
</svg>
